<svg width="307.71" height="66" xmlns="http://www.w3.org/2000/svg" xmlns:xlink="http://www.w3.org/1999/xlink" data-name="Layer 1">
 <defs>
  <radialGradient id="radial-gradient" cx="1566.57" cy="581.64" r="295.99" gradientUnits="userSpaceOnUse" gradientTransform="matrix(0.20682136714458466,0,0,0.20682136714458466,-108.84748268127441,-123.25043487548828)">
   <stop offset="0" stop-color="#8102ff"/>
   <stop offset="0.52" stop-color="#b001fe"/>
   <stop offset="1" stop-color="#db03fa"/>
  </radialGradient>
  <radialGradient id="radial-gradient-2" cx="746.83" cy="613.08" r="266.16" xlink:href="#radial-gradient"/>
 </defs>
 <g>
  <title>Layer 1</title>
  <g id="svg_12" stroke="null">
   <path class="cls-1" d="m226.98287,26.28142l0,-0.02895a21.36051,21.36051 0 0 0 -1.03411,-6.97609c-2.81484,-8.81266 -11.03599,-15.27376 -20.29331,-15.67292c-2.96789,-0.12409 -5.93784,-0.11582 -8.97605,-0.08686c-3.03821,-0.02895 -6.0123,-0.03723 -8.98432,0.08686c-9.25939,0.39917 -17.48054,6.86027 -20.29125,15.67292a21.4722,21.4722 0 0 0 -1.03411,6.97609l0,0.02895c0,0.04964 0,0.10134 0,0.15305c-0.01448,5.40838 1.77246,10.14666 5.17053,14.3079c4.26052,5.22844 9.89847,7.90058 16.50021,8.30388c2.84793,0.17166 5.71034,0.16132 8.64307,0.12409c2.93273,0.03723 5.791,0.04757 8.64307,-0.12409c6.60381,-0.4033 12.24383,-3.07543 16.50021,-8.30388c3.39394,-4.16125 5.17053,-8.89332 5.17053,-14.3079c-0.01241,-0.05377 -0.01241,-0.10548 -0.01448,-0.15305l0.00001,0zm-8.28526,0.63494a0.13443,0.13443 0 0 0 0,0.04136c-0.23164,4.49216 -1.76832,8.45693 -5.35461,11.49927c-3.46426,2.9348 -7.53037,3.72278 -11.86121,3.78069c-0.87899,0.01034 -8.72166,0.01034 -9.59651,0c-4.34325,-0.04964 -8.40315,-0.8459 -11.86327,-3.78069c-3.58421,-3.04234 -5.1209,-7.00711 -5.35461,-11.49927a0.13443,0.13443 0 0 0 0,-0.04136l0,0c0,-0.37848 0,-0.75283 0,-1.11684c0.05171,-5.27395 2.25435,-9.44553 6.51487,-12.51476c3.00718,-2.16542 6.49419,-2.78175 10.09082,-2.85827c1.03411,-0.02275 9.79092,-0.02275 10.81469,0c3.59662,0.07652 7.0857,0.69285 10.08875,2.85827c4.26259,3.06923 6.46524,7.23875 6.51487,12.51476c0,0.36401 0,0.73835 0,1.11684l0.0062,0l0.00001,0z" fill="url(#radial-gradient)" id="svg_1" stroke="null"/>
   <path class="cls-2" d="m51.5425,3.00575l0,44.31355l7.53243,0l0,-44.31355l-7.53243,0z" fill="#8102ff" id="svg_2" stroke="null"/>
   <path class="cls-2" d="m88.19745,24.27526l13.42064,-21.26951l-9.11669,0l-8.47968,15.00282l-8.29354,-15.00282l-9.05671,0l13.10213,21.26951l-14.68432,23.04404l9.05257,0l9.81161,-17.02967l9.49724,17.02967l9.11669,0l-14.36995,-23.04404l0.00001,0z" fill="#8102ff" id="svg_3" stroke="null"/>
   <path class="cls-2" d="m112.69338,40.73617l0,6.58312l22.33671,0l0,-6.58312l-22.33671,0zm0,-20.38432l0,6.45696l21.0813,0l0,-6.45696l-21.0813,0zm0,-17.34611l0,6.58519l22.33671,0l0,-6.58519l-22.33671,0zm-4.62039,0l0,44.31355l7.34423,0l0,-44.31355l-7.34423,0z" fill="#8102ff" id="svg_4" stroke="null"/>
   <path class="cls-2" d="m149.03189,40.61001l0,-37.60426l-7.47039,0l0,44.31355l24.31185,0l0,-6.70929l-16.84147,0l0.00001,0z" fill="#8102ff" id="svg_5" stroke="null"/>
   <path class="cls-2" d="m271.79693,2.56522l-7.21186,0a0.06205,0.06205 0 0 0 -0.06618,0.06618l0,29.52168a0.06411,0.06411 0 0 1 -0.10962,0.0455l-29.74919,-29.1887a1.4643,1.4643 0 0 0 -2.48186,1.04652l0,43.63931a0.06411,0.06411 0 0 0 0.06618,0.06411l7.19532,0a0.06411,0.06411 0 0 0 0.06618,-0.06411l0,-28.8764a0.06411,0.06411 0 0 1 0.10962,-0.0455l30.53718,29.06254c0.47155,0.46328 1.71041,0.1303 1.71041,-0.53153l0,-44.67342a0.06411,0.06411 0 0 0 -0.06618,-0.06618z" fill="#8102ff" id="svg_6" stroke="null"/>
   <path class="cls-2" d="m283.00458,40.73617l0,7.03193l22.33671,0l0,-7.03193l-22.33671,0zm0,-20.38432l0,6.45696l21.52183,0l0,-6.45696l-21.52183,0zm0,-17.78664l0,7.03193l22.33671,0l0,-7.03193l-22.33671,0zm-4.62246,0l0,45.19461l7.34423,0l0,-45.19461l-7.34423,0z" fill="#8102ff" id="svg_7" stroke="null"/>
   <rect class="cls-3" x="4.00667" y="52.4464" width="8.71959" height="8.71959" fill="url(#radial-gradient-2)" id="svg_8" stroke="null"/>
   <path class="cls-3" d="m25.73946,3.13811c-2.87895,-0.11996 -5.75998,-0.11168 -8.70511,-0.0848c-2.06821,0.03102 -4.16331,-0.04343 -6.24601,-0.01655l-7.33182,0l0,6.67826l0.54187,0l0,0.02068l7.81371,0c0.22337,0 0.44673,-0.01241 0.67217,-0.01861l0.24405,0c2.10958,-0.03309 4.23157,0.05584 6.29151,0c10.07013,-0.75903 19.09375,3.89651 19.36469,14.94698c0.49844,9.54894 -7.37732,16.41334 -16.69669,15.95213c-1.5553,0.01861 -3.10232,0.01034 -4.65762,0.01034c-1.41259,0 -2.85827,0.02482 -4.30188,0l0,0l-9.2718,0l0,6.68033l6.72376,0c2.27504,0.091 4.56868,0.02895 6.84165,0.03102c2.84586,0.03723 5.62347,0.0455 8.38661,-0.11996c11.4579,-0.30816 21.3026,-10.54789 21.01098,-22.08439c0.34953,-11.3669 -9.33592,-21.60249 -20.68007,-21.99545l0,0.00002z" fill="url(#radial-gradient-2)" id="svg_9" stroke="null"/>
   <path class="cls-3" d="m12.72833,9.73571l-0.91622,0c-0.61012,0.02068 -1.21611,0.05584 -1.82003,0.10962c0.91001,-0.07859 1.8221,-0.10962 2.73625,-0.10962z" fill="url(#radial-gradient-2)" id="svg_10" stroke="null"/>
   <path class="cls-3" d="m12.31262,40.61415c0.1365,0 0.27714,0 0.41364,0.01034l0,0l-0.41364,-0.01034z" fill="url(#radial-gradient-2)" id="svg_11" stroke="null"/>
  </g>
 </g>
</svg>